<?xml version="1.0" encoding="UTF-8"?>
<svg id="Layer_2" data-name="Layer 2" xmlns="http://www.w3.org/2000/svg" viewBox="0 0 519.63 66.02">
  <defs>
    <style>
      .cls-1 {
        fill: #fff;
      }
    </style>
  </defs>
  <g id="Layer_1-2" data-name="Layer 1">
    <g>
      <path class="cls-1" d="M38.31,65.55H8.31c-2.65,0-4.69-.71-6.14-2.12-1.45-1.42-2.17-3.48-2.17-6.19V7.85c0-2.28.65-3.98,1.94-5.12,1.29-1.14,2.8-1.71,4.52-1.71s3.23.57,4.52,1.71c1.29,1.14,1.94,2.85,1.94,5.12v44.78h25.39c2.34,0,4.09.65,5.26,1.94,1.17,1.29,1.75,2.8,1.75,4.52s-.59,3.23-1.75,4.52c-1.17,1.29-2.92,1.94-5.26,1.94Z"/>
      <path class="cls-1" d="M78.11.92c1.6,0,3.25.49,4.94,1.48,1.69.99,3.12,2.95,4.29,5.91l18.46,48.01c.86,2.34.91,4.28.14,5.82-.77,1.54-1.95,2.57-3.55,3.09-1.6.52-3.22.45-4.85-.23-1.63-.68-2.88-2.03-3.74-4.06l-3.69-8.77h-24l-3.69,8.77c-.86,2.03-2.11,3.37-3.74,4.02-1.63.65-3.25.71-4.85.18-1.6-.52-2.79-1.55-3.55-3.09-.77-1.54-.72-3.45.14-5.72l18.46-48.01c1.11-2.95,2.52-4.92,4.25-5.91,1.72-.98,3.38-1.48,4.99-1.48ZM70.26,39.7h15.7l-7.85-23.08-7.85,23.08Z"/>
      <path class="cls-1" d="M144.67,5.54c.92-2.03,2.22-3.38,3.88-4.06,1.66-.68,3.28-.74,4.85-.19,1.57.55,2.74,1.59,3.51,3.09.77,1.51.69,3.43-.23,5.77l-18.46,48.01c-1.05,2.77-2.42,4.68-4.11,5.72-1.69,1.05-3.4,1.6-5.12,1.66-1.54-.06-3.17-.61-4.89-1.66-1.72-1.05-3.17-2.95-4.34-5.72l-18.47-48.01c-.8-2.34-.8-4.28,0-5.82.8-1.54,1.99-2.58,3.55-3.14,1.57-.55,3.15-.49,4.75.18,1.6.68,2.83,2.06,3.69,4.15l15.7,44.78,15.7-44.78Z"/>
      <path class="cls-1" d="M179.94.92c1.6,0,3.25.49,4.94,1.48,1.69.99,3.12,2.95,4.29,5.91l18.46,48.01c.86,2.34.91,4.28.14,5.82-.77,1.54-1.95,2.57-3.55,3.09-1.6.52-3.22.45-4.85-.23-1.63-.68-2.88-2.03-3.74-4.06l-3.69-8.77h-24l-3.69,8.77c-.86,2.03-2.11,3.37-3.74,4.02-1.63.65-3.25.71-4.85.18-1.6-.52-2.79-1.55-3.55-3.09-.77-1.54-.72-3.45.14-5.72l18.46-48.01c1.11-2.95,2.52-4.92,4.25-5.91,1.72-.98,3.38-1.48,4.99-1.48ZM172.09,39.7h15.7l-7.85-23.08-7.85,23.08Z"/>
      <path class="cls-1" d="M216.59,60.01c-1.85-1.29-2.92-2.8-3.23-4.52-.31-1.72-.03-3.31.83-4.75.86-1.45,2.15-2.38,3.88-2.82,1.72-.43,3.69.06,5.91,1.48,2.03,1.35,4.28,2.32,6.74,2.91,2.46.59,4.79.75,6.97.51,2.18-.25,3.98-.92,5.4-2.03,1.42-1.11,2.12-2.65,2.12-4.62,0-1.85-.72-3.25-2.17-4.2-1.45-.95-4.11-1.86-7.99-2.72-3.02-.68-5.92-1.45-8.73-2.31-2.8-.86-5.59-2.55-8.35-5.08-1.97-1.78-3.36-3.97-4.15-6.56-.8-2.58-.96-5.02-.46-7.29.43-3.45,1.49-6.28,3.19-8.49,1.69-2.22,3.71-4,6.05-5.35,2.03-1.42,4.37-2.38,7.02-2.91,2.65-.52,5.32-.68,8.03-.46,2.71.22,5.29.77,7.76,1.66,2.46.89,4.55,2.08,6.28,3.55,1.48,1.35,2.31,2.86,2.49,4.52.18,1.66-.11,3.14-.88,4.43-.77,1.29-1.86,2.16-3.28,2.59-1.42.43-3.02.12-4.8-.92-1.54-.92-3.19-1.75-4.94-2.49-1.75-.74-3.51-1.15-5.26-1.25-1.75-.09-3.43.39-5.03,1.43-1.85,1.17-2.97,2.71-3.37,4.62-.4,1.91.11,3.45,1.52,4.62.92.74,2.29,1.35,4.11,1.85,1.81.49,3.89,1,6.23,1.52,2.34.52,4.74,1.25,7.2,2.17,1.23.43,2.6,1.02,4.11,1.75,1.51.74,2.97,1.86,4.39,3.37,1.42,1.51,2.58,3.65,3.51,6.42.43,1.54.63,3.52.6,5.96-.03,2.43-.65,4.97-1.85,7.62-1.2,2.65-3.25,5.05-6.14,7.2-1.66,1.17-3.71,2.17-6.14,3-2.43.83-5.14,1.32-8.12,1.48-2.99.15-6.14-.22-9.46-1.11s-6.65-2.48-9.97-4.75Z"/>
      <path class="cls-1" d="M293.68,66.01c-4.19,0-8.12-.88-11.82-2.63-3.69-1.75-6.94-4.19-9.74-7.29-2.8-3.11-4.99-6.69-6.56-10.76-1.57-4.06-2.35-8.4-2.35-13.02s.8-8.6,2.4-12.51c1.6-3.91,3.8-7.34,6.6-10.29,2.8-2.95,6.05-5.28,9.74-6.97,3.69-1.69,7.6-2.54,11.73-2.54s7.82.77,11.63,2.31c3.82,1.54,6.86,3.69,9.14,6.46,1.42,1.72,2.09,3.43,2.03,5.12-.06,1.69-.63,3.11-1.71,4.25-1.08,1.14-2.43,1.72-4.06,1.75-1.63.03-3.31-.75-5.03-2.35-2.83-2.71-5.96-4.29-9.37-4.75s-6.66.02-9.74,1.43c-3.08,1.42-5.6,3.68-7.57,6.79-1.97,3.11-2.95,6.88-2.95,11.31,0,3.75.8,7.22,2.4,10.39,1.6,3.17,3.74,5.69,6.42,7.57,2.68,1.88,5.62,2.82,8.82,2.82,2.22.06,4.39-.32,6.51-1.15,2.12-.83,3.95-1.98,5.49-3.46,1.72-1.6,3.45-2.37,5.17-2.31,1.72.06,3.14.69,4.25,1.89,1.11,1.2,1.68,2.68,1.71,4.43s-.75,3.49-2.35,5.22c-2.65,2.83-5.8,4.92-9.46,6.28-3.66,1.35-7.43,2.03-11.31,2.03Z"/>
      <path class="cls-1" d="M323.13,58.63V7.85c0-2.28.65-3.98,1.94-5.12,1.29-1.14,2.8-1.71,4.52-1.71s3.23.57,4.52,1.71c1.29,1.14,1.94,2.85,1.94,5.12v50.78c0,2.28-.65,4-1.94,5.17-1.29,1.17-2.8,1.75-4.52,1.75s-3.23-.58-4.52-1.75c-1.29-1.17-1.94-2.89-1.94-5.17Z"/>
      <path class="cls-1" d="M350.37,57.24c-2.09-2.46-3.63-4.94-4.62-7.43-.99-2.49-1.62-5.29-1.89-8.4-.28-3.11-.42-6.75-.42-10.94V7.85c0-2.28.65-3.98,1.94-5.12,1.29-1.14,2.8-1.71,4.52-1.71s3.23.57,4.52,1.71c1.29,1.14,1.94,2.85,1.94,5.12v22.62c0,4.06.09,7.22.28,9.46.18,2.25.54,4,1.06,5.26.52,1.26,1.31,2.51,2.35,3.74,1.54,1.79,3.48,2.99,5.82,3.6,2.34.62,4.74.62,7.2,0,2.46-.61,4.58-1.81,6.37-3.6.98-1.23,1.75-2.48,2.31-3.74.55-1.26.94-3.02,1.15-5.26.21-2.25.32-5.4.32-9.46V7.85c0-2.34.65-4.08,1.94-5.22,1.29-1.14,2.78-1.71,4.48-1.71s3.18.57,4.48,1.71c1.29,1.14,1.94,2.88,1.94,5.22v22.62c0,4.19-.15,7.83-.46,10.94-.31,3.11-.94,5.91-1.89,8.4-.95,2.49-2.48,4.97-4.57,7.43-2.65,2.89-5.66,5.06-9.05,6.51-3.39,1.45-6.88,2.17-10.48,2.17s-7.08-.72-10.43-2.17c-3.36-1.45-6.29-3.62-8.82-6.51Z"/>
      <path class="cls-1" d="M431.52,66.01c-3.32-.12-6.69-.91-10.11-2.35-3.42-1.45-6.57-3.54-9.46-6.28-2.89-2.74-5.25-6.12-7.06-10.16-1.82-4.03-2.79-8.69-2.91-13.99-.06-4.19.63-8.25,2.08-12.19,1.45-3.94,3.51-7.48,6.19-10.62,2.68-3.14,5.77-5.54,9.28-7.2,3.57-1.72,7.34-2.74,11.31-3.05,3.97-.31,7.69,0,11.17.92,3.48.92,6.29,2.4,8.45,4.43,1.42,1.29,2.18,2.79,2.31,4.48.12,1.69-.23,3.23-1.06,4.62-.83,1.38-2.03,2.25-3.6,2.58-1.57.34-3.4-.17-5.49-1.52-2.46-1.6-5.16-2.57-8.08-2.91-2.92-.34-5.92.17-9,1.52-3.26,1.85-5.92,4.25-7.99,7.2-2.06,2.95-3.09,6.86-3.09,11.73,0,3.57.55,6.6,1.66,9.09,1.11,2.49,2.54,4.52,4.29,6.09,1.75,1.57,3.66,2.72,5.72,3.46,2.06.74,4.02,1.14,5.86,1.2,2.71.12,5.34-.34,7.89-1.38,2.55-1.05,4.79-2.62,6.69-4.71,1.91-2.09,3.2-4.68,3.88-7.76l-13.85.46c-2.28.06-4.11-.01-5.49-.23-1.38-.21-2.63-.91-3.74-2.08-1.05-1.42-1.54-2.98-1.48-4.71.06-1.72.71-3.22,1.94-4.48,1.23-1.26,3.08-1.89,5.54-1.89h19.85c3.02,0,5.45.99,7.29,2.95,1.85,1.97,2.65,4.68,2.4,8.12-.25,4.12-1.22,8.02-2.91,11.68-1.69,3.66-4.26,7-7.71,10.02-3.32,2.83-6.8,4.71-10.43,5.63-3.63.92-7.08,1.35-10.34,1.29Z"/>
      <path class="cls-1" d="M491.25.92c1.6,0,3.25.49,4.94,1.48,1.69.99,3.12,2.95,4.29,5.91l18.46,48.01c.86,2.34.91,4.28.14,5.82-.77,1.54-1.96,2.57-3.55,3.09-1.6.52-3.22.45-4.85-.23-1.63-.68-2.88-2.03-3.74-4.06l-3.69-8.77h-24l-3.69,8.77c-.86,2.03-2.11,3.37-3.74,4.02-1.63.65-3.25.71-4.85.18-1.6-.52-2.79-1.55-3.55-3.09-.77-1.54-.72-3.45.14-5.72l18.46-48.01c1.11-2.95,2.52-4.92,4.25-5.91,1.72-.98,3.38-1.48,4.99-1.48ZM483.41,39.7h15.7l-7.85-23.08-7.85,23.08Z"/>
    </g>
  </g>
</svg>