<?xml version="1.0" encoding="UTF-8"?>
<svg id="Layer_2" data-name="Layer 2" xmlns="http://www.w3.org/2000/svg" viewBox="0 0 521.68 66.22">
  <defs>
    <style>
      .cls-1 {
        fill: #fff;
      }
    </style>
  </defs>
  <g id="Layer_1-2" data-name="Layer 1">
    <g>
      <path class="cls-1" d="M38.43,65.75H8.33c-2.65,0-4.71-.71-6.16-2.13-1.45-1.42-2.18-3.49-2.18-6.2V7.87c0-2.28.65-4,1.94-5.14,1.3-1.14,2.81-1.71,4.54-1.71s3.24.57,4.54,1.71c1.3,1.14,1.94,2.86,1.94,5.14v44.91h25.47c2.35,0,4.1.65,5.28,1.94,1.17,1.3,1.76,2.81,1.76,4.54s-.59,3.24-1.76,4.54c-1.17,1.3-2.93,1.94-5.28,1.94Z"/>
      <path class="cls-1" d="M78.34.93c1.6,0,3.26.49,4.95,1.48,1.7.99,3.13,2.96,4.31,5.93l18.52,48.15c.86,2.35.91,4.29.14,5.83-.77,1.54-1.96,2.58-3.57,3.1-1.61.52-3.23.45-4.86-.23-1.64-.68-2.89-2.04-3.75-4.07l-3.7-8.8h-24.08l-3.7,8.8c-.87,2.04-2.12,3.38-3.75,4.03-1.64.65-3.26.71-4.86.19-1.61-.52-2.79-1.56-3.57-3.1-.77-1.54-.73-3.46.14-5.74l18.52-48.15c1.11-2.96,2.53-4.94,4.26-5.93,1.73-.99,3.39-1.48,5-1.48ZM70.47,39.82h15.74l-7.87-23.15-7.87,23.15Z"/>
      <path class="cls-1" d="M145.11,5.56c.93-2.04,2.22-3.39,3.89-4.07,1.67-.68,3.29-.74,4.86-.19s2.75,1.59,3.52,3.1c.77,1.51.69,3.44-.23,5.79l-18.52,48.15c-1.05,2.78-2.42,4.69-4.12,5.74-1.7,1.05-3.41,1.61-5.14,1.67-1.54-.06-3.18-.62-4.91-1.67-1.73-1.05-3.18-2.96-4.35-5.74l-18.52-48.15c-.8-2.35-.8-4.29,0-5.83.8-1.54,1.99-2.59,3.57-3.15,1.57-.56,3.16-.49,4.77.19,1.6.68,2.84,2.07,3.7,4.17l15.74,44.91,15.74-44.91Z"/>
      <path class="cls-1" d="M180.49.93c1.6,0,3.26.49,4.96,1.48,1.7.99,3.13,2.96,4.31,5.93l18.52,48.15c.86,2.35.91,4.29.14,5.83-.77,1.54-1.96,2.58-3.57,3.1-1.61.52-3.23.45-4.86-.23-1.64-.68-2.89-2.04-3.75-4.07l-3.7-8.8h-24.08l-3.7,8.8c-.87,2.04-2.12,3.38-3.75,4.03-1.64.65-3.26.71-4.86.19-1.61-.52-2.79-1.56-3.57-3.1-.77-1.54-.73-3.46.14-5.74l18.52-48.15c1.11-2.96,2.53-4.94,4.26-5.93,1.73-.99,3.39-1.48,5-1.48ZM172.62,39.82h15.74l-7.87-23.15-7.87,23.15Z"/>
      <path class="cls-1" d="M217.25,60.19c-1.85-1.3-2.93-2.81-3.24-4.54-.31-1.73-.03-3.32.83-4.77.86-1.45,2.16-2.39,3.89-2.82,1.73-.43,3.7.06,5.93,1.48,2.04,1.36,4.29,2.33,6.76,2.92,2.47.59,4.8.76,6.99.51,2.19-.25,4-.93,5.42-2.04,1.42-1.11,2.13-2.65,2.13-4.63,0-1.85-.73-3.26-2.18-4.21-1.45-.96-4.12-1.87-8.01-2.73-3.03-.68-5.94-1.45-8.75-2.32-2.81-.86-5.6-2.56-8.38-5.09-1.98-1.79-3.37-3.98-4.17-6.58-.8-2.59-.96-5.03-.46-7.32.43-3.46,1.5-6.3,3.19-8.52,1.7-2.22,3.72-4.01,6.07-5.37,2.04-1.42,4.38-2.39,7.04-2.92,2.65-.52,5.34-.68,8.06-.46,2.72.22,5.31.77,7.78,1.67,2.47.9,4.57,2.08,6.3,3.57,1.48,1.36,2.31,2.87,2.5,4.54.19,1.67-.11,3.15-.88,4.45-.77,1.3-1.87,2.16-3.29,2.59-1.42.43-3.03.12-4.82-.93-1.54-.93-3.2-1.76-4.96-2.5s-3.52-1.16-5.28-1.25c-1.76-.09-3.44.39-5.05,1.44-1.85,1.17-2.98,2.72-3.38,4.63-.4,1.91.11,3.46,1.53,4.63.93.74,2.3,1.36,4.12,1.85,1.82.5,3.9,1,6.25,1.53,2.35.53,4.75,1.25,7.22,2.18,1.23.43,2.61,1.02,4.12,1.76,1.51.74,2.98,1.87,4.4,3.38,1.42,1.51,2.59,3.66,3.52,6.44.43,1.54.63,3.53.6,5.97-.03,2.44-.65,4.99-1.85,7.64-1.2,2.66-3.26,5.06-6.16,7.22-1.67,1.17-3.72,2.18-6.16,3.01-2.44.83-5.16,1.33-8.15,1.48-3,.15-6.16-.22-9.49-1.11s-6.67-2.48-10-4.77Z"/>
      <path class="cls-1" d="M294.58,66.21c-4.2,0-8.15-.88-11.85-2.64-3.7-1.76-6.96-4.2-9.77-7.32-2.81-3.12-5-6.71-6.58-10.79-1.57-4.07-2.36-8.43-2.36-13.06s.8-8.63,2.41-12.55c1.61-3.92,3.81-7.36,6.62-10.33s6.07-5.29,9.77-6.99c3.7-1.7,7.62-2.55,11.76-2.55s7.84.77,11.67,2.32c3.83,1.54,6.88,3.7,9.17,6.48,1.42,1.73,2.1,3.44,2.04,5.14-.06,1.7-.63,3.12-1.71,4.26-1.08,1.14-2.44,1.73-4.07,1.76-1.64.03-3.32-.76-5.05-2.36-2.84-2.72-5.97-4.31-9.4-4.77-3.43-.46-6.68.02-9.77,1.44-3.09,1.42-5.62,3.69-7.59,6.81-1.98,3.12-2.96,6.9-2.96,11.34,0,3.77.8,7.24,2.41,10.42,1.6,3.18,3.75,5.71,6.44,7.59,2.69,1.88,5.63,2.82,8.84,2.82,2.22.06,4.4-.32,6.53-1.16,2.13-.83,3.97-1.99,5.51-3.47,1.73-1.6,3.46-2.38,5.19-2.31,1.73.06,3.15.69,4.26,1.9s1.68,2.69,1.71,4.45c.03,1.76-.76,3.5-2.36,5.23-2.65,2.84-5.82,4.94-9.49,6.3-3.67,1.36-7.45,2.04-11.34,2.04Z"/>
      <path class="cls-1" d="M324.12,58.81V7.87c0-2.28.65-4,1.94-5.14,1.3-1.14,2.81-1.71,4.54-1.71s3.24.57,4.54,1.71c1.3,1.14,1.95,2.86,1.95,5.14v50.93c0,2.28-.65,4.01-1.95,5.19-1.3,1.17-2.81,1.76-4.54,1.76s-3.24-.59-4.54-1.76c-1.3-1.17-1.94-2.9-1.94-5.19Z"/>
      <path class="cls-1" d="M351.43,57.42c-2.1-2.47-3.64-4.95-4.63-7.46-.99-2.5-1.62-5.31-1.9-8.43-.28-3.12-.42-6.77-.42-10.97V7.87c0-2.28.65-4,1.95-5.14,1.3-1.14,2.81-1.71,4.54-1.71s3.24.57,4.54,1.71c1.3,1.14,1.95,2.86,1.95,5.14v22.69c0,4.07.09,7.24.28,9.49.19,2.25.54,4.01,1.07,5.28.52,1.27,1.31,2.52,2.36,3.75,1.54,1.79,3.49,3,5.83,3.61,2.35.62,4.75.62,7.22,0,2.47-.62,4.6-1.82,6.39-3.61.99-1.23,1.76-2.48,2.31-3.75.55-1.26.94-3.02,1.16-5.28.21-2.25.32-5.42.32-9.49V7.87c0-2.35.65-4.09,1.94-5.23,1.3-1.14,2.79-1.71,4.49-1.71s3.2.57,4.49,1.71c1.29,1.14,1.94,2.89,1.94,5.23v22.69c0,4.2-.15,7.86-.46,10.97-.31,3.12-.94,5.93-1.9,8.43-.96,2.5-2.49,4.99-4.58,7.46-2.65,2.9-5.68,5.08-9.07,6.53-3.4,1.45-6.9,2.18-10.51,2.18s-7.1-.73-10.46-2.18c-3.37-1.45-6.31-3.63-8.84-6.53Z"/>
      <path class="cls-1" d="M432.83,66.21c-3.33-.12-6.71-.91-10.14-2.36-3.43-1.45-6.59-3.55-9.49-6.3-2.9-2.75-5.27-6.14-7.09-10.19-1.82-4.04-2.79-8.72-2.92-14.03-.06-4.2.63-8.27,2.08-12.22,1.45-3.95,3.52-7.5,6.2-10.65,2.69-3.15,5.79-5.56,9.31-7.22,3.58-1.73,7.36-2.75,11.34-3.06,3.98-.31,7.72,0,11.21.93,3.49.93,6.31,2.41,8.47,4.45,1.42,1.3,2.19,2.79,2.32,4.49.12,1.7-.23,3.24-1.07,4.63-.83,1.39-2.04,2.25-3.61,2.59-1.57.34-3.41-.17-5.51-1.53-2.47-1.6-5.17-2.58-8.1-2.92-2.93-.34-5.94.17-9.03,1.53-3.27,1.85-5.94,4.26-8.01,7.22s-3.1,6.88-3.1,11.76c0,3.58.55,6.62,1.67,9.12s2.55,4.54,4.31,6.11c1.76,1.57,3.67,2.73,5.74,3.47,2.07.74,4.03,1.14,5.88,1.2,2.72.12,5.36-.34,7.92-1.39,2.56-1.05,4.8-2.62,6.71-4.72,1.91-2.1,3.21-4.69,3.89-7.78l-13.89.46c-2.29.06-4.12-.01-5.51-.23-1.39-.22-2.64-.91-3.75-2.08-1.05-1.42-1.54-2.99-1.48-4.72.06-1.73.71-3.23,1.95-4.49,1.23-1.26,3.09-1.9,5.56-1.9h19.91c3.02,0,5.46.99,7.32,2.96,1.85,1.98,2.65,4.69,2.41,8.15-.25,4.14-1.22,8.04-2.92,11.71-1.7,3.67-4.28,7.02-7.73,10.05-3.33,2.84-6.82,4.72-10.46,5.65-3.64.93-7.1,1.36-10.37,1.3Z"/>
      <path class="cls-1" d="M493.21.93c1.61,0,3.26.49,4.96,1.48,1.7.99,3.13,2.96,4.31,5.93l18.52,48.15c.86,2.35.91,4.29.14,5.83-.77,1.54-1.96,2.58-3.57,3.1s-3.23.45-4.86-.23c-1.64-.68-2.89-2.04-3.75-4.07l-3.71-8.8h-24.08l-3.71,8.8c-.87,2.04-2.12,3.38-3.75,4.03-1.64.65-3.26.71-4.86.19-1.61-.52-2.79-1.56-3.56-3.1-.77-1.54-.73-3.46.14-5.74l18.52-48.15c1.11-2.96,2.53-4.94,4.26-5.93,1.73-.99,3.39-1.48,5-1.48ZM485.34,39.82h15.74l-7.87-23.15-7.87,23.15Z"/>
    </g>
  </g>
</svg>