<?xml version="1.0" encoding="UTF-8"?>
<svg id="Layer_2" data-name="Layer 2" xmlns="http://www.w3.org/2000/svg" viewBox="0 0 519.62 43.69">
  <defs>
    <style>
      .cls-1 {
        fill: #231f20;
      }

      .cls-2 {
        opacity: .7;
      }
    </style>
  </defs>
  <g id="Layer_1-2" data-name="Layer 1">
    <g class="cls-2">
      <path class="cls-1" d="M8.49,9.17v29.33c0,1.59-.43,2.77-1.28,3.54-.86.77-1.84,1.15-2.96,1.13-1.12-.02-2.11-.43-2.96-1.22s-1.28-1.94-1.28-3.45V6.42c0-1.83.44-3.26,1.31-4.28.88-1.02,2.37-1.53,4.49-1.53h22.91c2.16,0,3.67.51,4.52,1.53.86,1.02,1.28,2.44,1.28,4.28v32.08c0,1.51-.43,2.66-1.28,3.45s-1.84,1.2-2.96,1.22c-1.12.02-2.11-.36-2.96-1.13-.86-.77-1.28-1.96-1.28-3.54V9.17H8.49Z"/>
      <path class="cls-1" d="M64.83,34.83c1.55,0,2.7.43,3.45,1.28.75.86,1.13,1.85,1.13,2.99s-.38,2.14-1.13,2.99c-.75.86-1.9,1.28-3.45,1.28h-19.25c-2.08,0-3.56-.5-4.46-1.5-.9-1-1.34-2.43-1.34-4.31V6.42c0-2.04.48-3.51,1.44-4.43.96-.92,2.41-1.38,4.37-1.38h19.25c1.55,0,2.7.43,3.45,1.28.75.86,1.13,1.85,1.13,2.99s-.38,2.14-1.13,2.99c-.75.86-1.9,1.28-3.45,1.28h-16.8v8.55h14.36c1.55,0,2.7.43,3.45,1.28.75.86,1.13,1.85,1.13,2.99s-.38,2.14-1.13,2.99c-.75.86-1.9,1.28-3.45,1.28h-14.36v8.55h16.8Z"/>
      <path class="cls-1" d="M89.82.61c2.89,0,5.31.62,7.24,1.86,1.93,1.24,3.4,2.82,4.4,4.74,1,1.92,1.5,3.89,1.5,5.93s-.5,4.16-1.5,6.11c-1,1.96-2.47,3.56-4.4,4.83-1.94,1.26-4.35,1.89-7.24,1.89h-7.94v12.83c0,1.51-.42,2.66-1.25,3.45-.84.79-1.79,1.2-2.87,1.22-1.08.02-2.04-.36-2.87-1.13-.84-.77-1.25-1.96-1.25-3.54V6.42c0-1.83.46-3.26,1.38-4.28.92-1.02,2.39-1.53,4.43-1.53h10.39ZM89.52,18.02c1.3,0,2.35-.31,3.15-.95.79-.63,1.33-1.42,1.62-2.35.28-.94.31-1.88.06-2.84-.24-.96-.77-1.75-1.59-2.38-.81-.63-1.89-.95-3.24-.95h-7.64v9.47h7.64Z"/>
      <path class="cls-1" d="M132.23,34.83c1.55,0,2.7.43,3.45,1.28.75.86,1.13,1.85,1.13,2.99s-.38,2.14-1.13,2.99c-.75.86-1.9,1.28-3.45,1.28h-19.25c-2.08,0-3.56-.5-4.46-1.5-.9-1-1.34-2.43-1.34-4.31V6.42c0-2.04.48-3.51,1.44-4.43.96-.92,2.41-1.38,4.37-1.38h19.25c1.55,0,2.7.43,3.45,1.28.75.86,1.13,1.85,1.13,2.99s-.38,2.14-1.13,2.99c-.75.86-1.9,1.28-3.45,1.28h-16.8v8.55h14.36c1.55,0,2.7.43,3.45,1.28.75.86,1.13,1.85,1.13,2.99s-.38,2.14-1.13,2.99c-.75.86-1.9,1.28-3.45,1.28h-14.36v8.55h16.8Z"/>
      <path class="cls-1" d="M181.66,43.38h-10.39c-2,0-3.46-.51-4.4-1.53-.94-1.02-1.41-2.44-1.41-4.28v-11.61h-15.89v12.83c0,1.51-.43,2.65-1.28,3.42-.85.77-1.85,1.16-2.99,1.16s-2.14-.39-2.99-1.16c-.86-.77-1.28-1.91-1.28-3.42V5.19c0-1.55.43-2.7,1.28-3.45.86-.75,1.85-1.13,2.99-1.13s2.14.38,2.99,1.13c.86.75,1.28,1.9,1.28,3.45v12.83h15.89V5.19c0-1.59.42-2.77,1.25-3.54.83-.77,1.79-1.15,2.87-1.13,1.08.02,2.04.42,2.87,1.19.83.77,1.25,1.94,1.25,3.48v12.83h7.94c2.85,0,5.25.62,7.21,1.86,1.96,1.24,3.43,2.84,4.43,4.8,1,1.96,1.5,4.01,1.5,6.17,0,2.04-.5,4.01-1.5,5.93-1,1.92-2.47,3.49-4.43,4.74-1.96,1.24-4.36,1.86-7.21,1.86ZM181.35,25.97h-7.64v9.47h7.64c1.34,0,2.41-.31,3.21-.95.79-.63,1.31-1.43,1.56-2.38.24-.96.22-1.9-.06-2.84-.29-.94-.82-1.72-1.59-2.35-.77-.63-1.81-.95-3.12-.95Z"/>
      <path class="cls-1" d="M224.06,34.83c1.55,0,2.7.43,3.45,1.28.75.86,1.13,1.85,1.13,2.99s-.38,2.14-1.13,2.99c-.75.86-1.9,1.28-3.45,1.28h-19.25c-2.08,0-3.56-.5-4.46-1.5-.9-1-1.34-2.43-1.34-4.31V6.42c0-2.04.48-3.51,1.44-4.43.96-.92,2.41-1.38,4.37-1.38h19.25c1.55,0,2.7.43,3.45,1.28.75.86,1.13,1.85,1.13,2.99s-.38,2.14-1.13,2.99c-.75.86-1.9,1.28-3.45,1.28h-16.8v8.55h14.36c1.55,0,2.7.43,3.45,1.28.75.86,1.13,1.85,1.13,2.99s-.38,2.14-1.13,2.99c-.75.86-1.9,1.28-3.45,1.28h-14.36v8.55h16.8Z"/>
      <path class="cls-1" d="M258.16,25.91h-20.77c-1.67,0-2.91-.43-3.73-1.28-.82-.86-1.22-1.83-1.22-2.93s.41-2.08,1.22-2.93c.81-.86,2.06-1.28,3.73-1.28h20.77c1.63,0,2.86.43,3.7,1.28.83.86,1.25,1.83,1.25,2.93s-.42,2.08-1.25,2.93c-.84.86-2.07,1.28-3.7,1.28Z"/>
      <path class="cls-1" d="M287.12,43.69c-2.77,0-5.38-.58-7.82-1.74-2.44-1.16-4.59-2.77-6.45-4.83-1.85-2.06-3.3-4.43-4.34-7.12s-1.56-5.56-1.56-8.62.53-5.69,1.59-8.28c1.06-2.59,2.51-4.86,4.37-6.81,1.85-1.96,4-3.49,6.45-4.61,2.44-1.12,5.03-1.68,7.76-1.68s5.17.51,7.7,1.53c2.53,1.02,4.54,2.44,6.05,4.28.94,1.14,1.38,2.27,1.34,3.39-.04,1.12-.42,2.06-1.13,2.81-.71.75-1.61,1.14-2.69,1.16-1.08.02-2.19-.5-3.33-1.56-1.87-1.79-3.94-2.84-6.2-3.15-2.26-.31-4.41.01-6.45.95-2.04.94-3.71,2.43-5.01,4.49-1.3,2.06-1.96,4.55-1.96,7.48,0,2.49.53,4.78,1.59,6.87,1.06,2.1,2.47,3.77,4.25,5.01,1.77,1.24,3.72,1.86,5.83,1.86,1.47.04,2.9-.21,4.31-.76s2.62-1.31,3.64-2.29c1.14-1.06,2.28-1.57,3.42-1.53,1.14.04,2.08.46,2.81,1.25.73.79,1.11,1.77,1.13,2.93.02,1.16-.5,2.31-1.56,3.45-1.75,1.87-3.84,3.26-6.26,4.16-2.42.9-4.92,1.34-7.49,1.34Z"/>
      <path class="cls-1" d="M331.24,4.28c.61-1.34,1.38-2.29,2.32-2.84.94-.55,1.88-.76,2.84-.64.96.12,1.79.52,2.5,1.19.71.67,1.15,1.55,1.31,2.63.16,1.08-.08,2.29-.73,3.64-.53,1.02-1.3,2.55-2.32,4.58-1.02,2.04-2.16,4.34-3.42,6.9s-2.54,5.16-3.82,7.79c-1.28,2.63-2.49,5.07-3.61,7.33-1.12,2.26-2.03,4.08-2.72,5.47-.65,1.14-1.47,1.92-2.44,2.35s-1.96.56-2.93.4c-.98-.16-1.81-.57-2.51-1.22-.69-.65-1.1-1.51-1.22-2.57-.12-1.06.16-2.24.86-3.54.2-.45.52-1.09.95-1.92.43-.83.93-1.72,1.5-2.66l-11.61-22.91c-.65-1.3-.9-2.48-.73-3.54.16-1.06.6-1.93,1.31-2.63.71-.69,1.56-1.11,2.54-1.25.98-.14,1.96.05,2.93.58.98.53,1.81,1.49,2.5,2.87l8.25,16.5c.12-.37.52-1.2,1.19-2.51.67-1.3,1.46-2.82,2.35-4.55.9-1.73,1.77-3.44,2.63-5.13.86-1.69,1.55-3.13,2.08-4.31Z"/>
      <path class="cls-1" d="M352.56,34.83h11.92V5.19c0-1.55.42-2.7,1.25-3.45.83-.75,1.79-1.13,2.87-1.13s2.04.38,2.87,1.13c.83.75,1.25,1.9,1.25,3.45v29.64h11.92V5.19c0-1.55.42-2.69,1.25-3.42.83-.73,1.79-1.09,2.87-1.07,1.08.02,2.04.41,2.87,1.16.83.75,1.25,1.86,1.25,3.33v32.38c0,1.83-.43,3.26-1.28,4.28-.86,1.02-2.36,1.53-4.52,1.53h-36.97c-2.12,0-3.62-.51-4.49-1.53-.88-1.02-1.31-2.44-1.31-4.28V5.19c0-1.47.42-2.58,1.25-3.33.83-.75,1.79-1.14,2.87-1.16,1.08-.02,2.04.34,2.87,1.07.83.73,1.25,1.87,1.25,3.42v29.64Z"/>
      <path class="cls-1" d="M423.19,34.83c1.55,0,2.7.43,3.45,1.28.75.86,1.13,1.85,1.13,2.99s-.38,2.14-1.13,2.99c-.75.86-1.9,1.28-3.45,1.28h-19.25c-2.08,0-3.57-.5-4.46-1.5-.9-1-1.34-2.43-1.34-4.31V6.42c0-2.04.48-3.51,1.44-4.43.96-.92,2.41-1.38,4.37-1.38h19.25c1.55,0,2.7.43,3.45,1.28.75.86,1.13,1.85,1.13,2.99s-.38,2.14-1.13,2.99c-.75.86-1.9,1.28-3.45,1.28h-16.8v8.55h14.36c1.55,0,2.7.43,3.45,1.28s1.13,1.85,1.13,2.99-.38,2.14-1.13,2.99-1.9,1.28-3.45,1.28h-14.36v8.55h16.8Z"/>
      <path class="cls-1" d="M472.63,43.38h-10.39c-2,0-3.46-.51-4.4-1.53-.94-1.02-1.41-2.44-1.41-4.28v-11.61h-15.89v12.83c0,1.51-.43,2.65-1.28,3.42-.86.77-1.85,1.16-2.99,1.16s-2.14-.39-2.99-1.16c-.86-.77-1.28-1.91-1.28-3.42V5.19c0-1.55.43-2.7,1.28-3.45.86-.75,1.85-1.13,2.99-1.13s2.14.38,2.99,1.13c.86.75,1.28,1.9,1.28,3.45v12.83h15.89V5.19c0-1.59.42-2.77,1.25-3.54.83-.77,1.79-1.15,2.87-1.13,1.08.02,2.04.42,2.87,1.19.83.77,1.25,1.94,1.25,3.48v12.83h7.94c2.85,0,5.25.62,7.21,1.86,1.96,1.24,3.43,2.84,4.43,4.8,1,1.96,1.5,4.01,1.5,6.17,0,2.04-.5,4.01-1.5,5.93-1,1.92-2.47,3.49-4.43,4.74-1.96,1.24-4.36,1.86-7.21,1.86ZM472.32,25.97h-7.64v9.47h7.64c1.34,0,2.41-.31,3.21-.95.79-.63,1.31-1.43,1.56-2.38.24-.96.22-1.9-.06-2.84-.29-.94-.82-1.72-1.59-2.35-.77-.63-1.81-.95-3.12-.95Z"/>
      <path class="cls-1" d="M515.03,34.83c1.55,0,2.7.43,3.45,1.28.75.86,1.13,1.85,1.13,2.99s-.38,2.14-1.13,2.99c-.75.86-1.9,1.28-3.45,1.28h-19.25c-2.08,0-3.57-.5-4.46-1.5-.9-1-1.34-2.43-1.34-4.31V6.42c0-2.04.48-3.51,1.44-4.43.96-.92,2.41-1.38,4.37-1.38h19.25c1.55,0,2.7.43,3.45,1.28.75.86,1.13,1.85,1.13,2.99s-.38,2.14-1.13,2.99c-.75.86-1.9,1.28-3.45,1.28h-16.8v8.55h14.36c1.55,0,2.7.43,3.45,1.28s1.13,1.85,1.13,2.99-.38,2.14-1.13,2.99-1.9,1.28-3.45,1.28h-14.36v8.55h16.8Z"/>
    </g>
  </g>
</svg>